HIERARCHY
ROOT Hips
{
 OFFSET 0.000000 0.000000 0.000000
 CHANNELS 6 Xposition Yposition Zposition Yrotation Xrotation Zrotation
 JOINT Chest
 {
  OFFSET 0.000000 9.581000 -0.001100
  CHANNELS 3 Yrotation Xrotation Zrotation
  JOINT Chest2
  {
   OFFSET 0.000000 9.561100 0.002200
   CHANNELS 3 Yrotation Xrotation Zrotation
   JOINT Chest3
   {
    OFFSET 0.000000 9.521100 0.000000
    CHANNELS 3 Yrotation Xrotation Zrotation
    JOINT Chest4
    {
     OFFSET 0.000000 9.511400 0.000000
     CHANNELS 3 Yrotation Xrotation Zrotation
     JOINT Neck
     {
      OFFSET 0.000000 14.375100 0.000000
      CHANNELS 3 Yrotation Xrotation Zrotation
      JOINT Head
      {
       OFFSET 0.000000 8.901200 0.004600
       CHANNELS 3 Yrotation Xrotation Zrotation
       End Site
       {
        OFFSET 0.000000 16.962200 0.002400
       }
      }
     }
     JOINT RightCollar
     {
      OFFSET -2.920100 9.518800 0.000000
      CHANNELS 3 Yrotation Xrotation Zrotation
      JOINT RightShoulder
      {
       OFFSET -13.664500 0.000000 0.000000
       CHANNELS 3 Yrotation Xrotation Zrotation
       JOINT RightElbow
       {
        OFFSET 0.000000 -29.999200 0.000000
        CHANNELS 3 Yrotation Xrotation Zrotation
        JOINT RightWrist
        {
         OFFSET 0.000000 -24.253600 0.000000
         CHANNELS 3 Yrotation Xrotation Zrotation
         End Site
         {
          OFFSET 0.000000 -17.918900 0.000000
         }
        }
       }
      }
     }
     JOINT LeftCollar
     {
      OFFSET 2.920100 9.518800 0.000000
      CHANNELS 3 Yrotation Xrotation Zrotation
      JOINT LeftShoulder
      {
       OFFSET 13.664500 0.000000 0.000000
       CHANNELS 3 Yrotation Xrotation Zrotation
       JOINT LeftElbow
       {
        OFFSET 0.000000 -29.999200 0.000000
        CHANNELS 3 Yrotation Xrotation Zrotation
        JOINT LeftWrist
        {
         OFFSET 0.000000 -24.253600 0.000000
         CHANNELS 3 Yrotation Xrotation Zrotation
         End Site
         {
          OFFSET 0.000000 -17.918900 0.000000
         }
        }
       }
      }
     }
    }
   }
  }
 }
 JOINT RightHip
 {
  OFFSET -7.797300 0.005300 0.000500
  CHANNELS 3 Yrotation Xrotation Zrotation
  JOINT RightKnee
  {
   OFFSET 0.000000 -40.663400 -0.000500
   CHANNELS 3 Yrotation Xrotation Zrotation
   JOINT RightAnkle
   {
    OFFSET 0.000000 -39.523700 -0.000900
    CHANNELS 3 Yrotation Xrotation Zrotation
    JOINT RightToe
    {
     OFFSET 0.000000 -6.418000 14.485300
     CHANNELS 3 Yrotation Xrotation Zrotation
     End Site
     {
      OFFSET 0.000000 -1.465200 6.326400
     }
    }
   }
  }
 }
 JOINT LeftHip
 {
  OFFSET 7.797300 0.005300 0.000500
  CHANNELS 3 Yrotation Xrotation Zrotation
  JOINT LeftKnee
  {
   OFFSET 0.000000 -40.663400 -0.000500
   CHANNELS 3 Yrotation Xrotation Zrotation
   JOINT LeftAnkle
   {
    OFFSET 0.000000 -39.523700 -0.000900
    CHANNELS 3 Yrotation Xrotation Zrotation
    JOINT LeftToe
    {
     OFFSET 0.000000 -6.418000 14.485300
     CHANNELS 3 Yrotation Xrotation Zrotation
     End Site
     {
      OFFSET 0.000000 -1.465200 6.326400
     }
    }
   }
  }
 }
}
MOTION
Frames: 5
Frame Time: 0.008333
0.000000 86.422400 0.000000 0.000000 -5.767877 0.000000 0.000000 11.653817 0.000000 0.000000 -5.885947 0.000000 0.000000 -0.000000 0.000000 0.000000 -0.000000 0.000000 0.000000 12.528835 0.000000 0.000000 0.711642 0.000000 0.000000 -0.000000 0.000000 0.000000 0.000000 -90.000000 0.000000 -2.309062 0.000000 0.000000 2.309062 0.000000 0.000000 -0.000000 0.000000 0.000000 -0.000000 90.000000 0.000000 -2.309062 0.000000 0.000000 2.309062 0.000000 0.000000 8.520406 0.000000 0.000000 1.905762 0.000000 -0.000000 -4.658285 0.000000 0.000000 -0.000000 0.000000 0.000000 8.520406 0.000000 0.000000 1.905762 0.000000 -0.000000 -4.658285 0.000000 0.000000 -0.000000 0.000000
-9.493936 126.516696 3.138939 169.829940 -30.650379 -2.796634 2.418913 19.759073 1.597425 0.255768 2.428524 0.160756 0.437360 4.000828 0.254111 2.037718 17.035880 1.311459 2.356476 16.023707 -4.331879 3.512194 -8.779430 -5.167534 -2.169408 -4.564962 0.126490 3.790123 -5.033501 -3.482194 91.718580 -64.978656 -62.878703 6.461155 -2.164498 -21.688962 -9.039171 -4.077710 1.882171 -4.957308 -10.837703 5.693581 -68.683719 -68.854861 50.327068 -29.103416 -14.611340 19.162100 -2.407743 -52.079700 5.460457 -131.628843 84.998361 -133.264169 11.035663 -27.913148 2.414550 -0.005141 -0.010097 -0.002277 -7.115580 -45.434586 -2.267847 57.960249 82.130011 50.890979 2.066370 -9.138308 3.335734 -0.000518 -0.002829 -0.000230
-9.495793 126.517195 3.139923 169.834909 -30.659443 -2.793761 2.421164 19.778198 1.588331 0.256892 2.427226 0.155648 0.438028 4.008651 0.252420 2.044556 17.076052 1.313855 2.264308 15.856340 -4.363242 3.420226 -8.961011 -5.178349 -2.188053 -4.519051 0.192161 3.830327 -5.118727 -3.575304 91.961700 -65.024044 -63.154679 6.431993 -2.145036 -21.644816 -9.066300 -4.066606 1.907120 -5.006142 -10.888616 5.751072 -68.457961 -69.004710 50.116753 -29.106688 -14.605516 19.213237 -2.305911 -52.071740 5.344420 -132.218613 85.042905 -133.796026 11.019962 -28.010967 2.396873 -0.005928 -0.019982 -0.002626 -7.116746 -45.416705 -2.271914 57.888276 82.110823 50.814626 2.061417 -9.133319 3.337419 0.001423 -0.001899 0.000631
-9.496728 126.517944 3.141002 169.837002 -30.670669 -2.796523 2.423527 19.793791 1.589692 0.265476 2.447759 0.149605 0.445704 4.076215 0.250338 2.043030 17.076325 1.319035 2.160485 15.663995 -4.396894 3.319349 -9.153396 -5.193364 -2.206763 -4.529644 0.233594 3.866457 -5.178160 -3.649342 92.166102 -65.085993 -63.391115 6.384583 -2.093306 -21.606286 -9.101183 -4.101227 1.929949 -5.071927 -10.929714 5.830751 -68.153590 -69.181359 49.838560 -29.120042 -14.597403 19.264092 -2.208848 -52.062422 5.245919 -132.514009 85.066283 -134.031876 11.020124 -28.070092 2.379338 -0.005345 -0.020405 -0.002367 -7.140771 -45.390779 -2.254514 57.798111 82.088317 50.708475 2.058189 -9.131954 3.339653 0.002683 0.003480 0.001189
-9.496758 126.518673 3.142496 169.841398 -30.680157 -2.807788 2.428906 19.832188 1.597049 0.266816 2.457721 0.150134 0.442806 4.096003 0.256954 2.043821 17.106731 1.324147 2.050376 15.488062 -4.441534 3.211519 -9.343021 -5.214592 -2.213552 -4.537651 0.249572 3.890276 -5.228225 -3.712286 92.347295 -65.162224 -63.595796 6.342401 -2.049163 -21.575653 -9.129912 -4.134130 1.935654 -5.150353 -10.969888 5.924448 -67.787872 -69.367583 49.504571 -29.138448 -14.590341 19.312121 -2.129522 -52.055203 5.179938 -132.825125 85.097399 -134.294940 10.986637 -28.096257 2.378097 -0.005926 -0.015025 -0.002625 -7.168803 -45.374201 -2.231446 57.753435 82.072442 50.651392 2.065501 -9.132126 3.342123 0.002988 0.001723 0.001324
